Coordinates
version=1
nRows=26
nColumns=24
inDegrees=yes

Units are S.I. units (second, meters, Newtons, ...)
Angles are in degrees.

endheader
time	pelvis_tilt	pelvis_list	pelvis_rotation	pelvis_tx	pelvis_ty	pelvis_tz	hip_flexion_r	hip_adduction_r	hip_rotation_r	knee_angle_r	ankle_angle_r	subtalar_angle_r	mtp_angle_r	hip_flexion_l	hip_adduction_l	hip_rotation_l	knee_angle_l	ankle_angle_l	subtalar_angle_l	mtp_angle_l	lumbar_extension	lumbar_bending	lumbar_rotation
      5.96000000	      4.96720111	     -6.26226562	     -8.04472620	      1.59283148	      0.88524094	     -0.25974615	    -19.86532555	      7.17809649	      6.79703194	    -15.79658848	     18.32407745	      1.74855507	      0.00000000	     16.88715098	     -5.58213002	     -7.11097871	     -3.73648822	     -1.34037097	      2.00160511	      0.00000000	    -23.24261692	      4.55291926	     12.45623008
      5.97000000	      4.99201942	     -5.90909044	     -8.00436087	      1.60730527	      0.88508583	     -0.26122623	    -19.64304756	      6.65306446	      6.28025072	    -17.83446555	     17.39802507	      1.95370318	      0.00000000	     16.60725495	     -4.92745081	     -6.41646978	     -4.71058807	     -2.18979518	     -0.13131137	      0.00000000	    -22.88118534	      4.25318179	     12.14133222
      5.98000000	      5.01700940	     -5.47766743	     -7.93679385	      1.62181191	      0.88511413	     -0.26276733	    -19.25451939	      6.08310644	      5.78237565	    -20.10909576	     16.12975075	      1.93290797	      0.00000000	     16.31011164	     -4.17492356	     -5.36113366	     -5.69848830	     -3.07274143	     -2.37847082	      0.00000000	    -22.50595500	      3.87453363	     11.76279720
      5.99000000	      5.12255586	     -4.94992190	     -7.81790681	      1.63623890	      0.88545911	     -0.26435385	    -18.75633888	      5.44691539	      5.25494491	    -22.64066539	     14.47116815	      1.69073285	      0.00000000	     15.94834377	     -3.29534967	     -4.07159227	     -6.72628255	     -3.81132326	     -4.52441230	      0.00000000	    -22.23321884	      3.37926828	     11.30830409
      6.00000000	      5.34399791	     -4.30377865	     -7.65998660	      1.65048189	      0.88617867	     -0.26590703	    -18.15337993	      4.71268347	      4.67614456	    -25.46240578	     12.45350717	      1.29067635	      0.00000000	     15.53605726	     -2.28248652	     -2.88551601	     -7.87074863	     -4.18122837	     -6.22048491	      0.00000000	    -22.12473306	      2.71464636	     10.81186019
      6.01000000	      5.54209070	     -3.61243283	     -7.39516236	      1.66445493	      0.88704707	     -0.26744862	    -17.29346295	      4.00218298	      4.01773604	    -28.58368201	     10.05678527	      0.77148615	      0.00000000	     15.32408565	     -1.24549894	     -2.11332704	     -9.31954146	     -3.67844727	     -6.83370693	      0.00000000	    -22.02878441	      2.00952468	     10.19916889
      6.02000000	      5.85360381	     -2.82593586	     -7.06131308	      1.67814722	      0.88816580	     -0.26895500	    -16.31865944	      3.19914196	      3.22985066	    -31.98412690	      7.50318486	      0.23156175	      0.00000000	     15.02844470	     -0.10162876	     -1.55755965	    -10.83233220	     -2.76880874	     -7.07806680	      0.00000000	    -22.11526915	      1.17482272	      9.49326265
      6.03000000	      6.08871143	     -2.08750556	     -6.71595085	      1.69149133	      0.88930735	     -0.27023457	    -15.08314493	      2.53395202	      2.68624613	    -35.57848636	      4.56596602	     -0.71209514	      0.00000000	     14.85077920	      0.90565545	     -1.60663119	    -12.43876818	     -1.14913814	     -6.28763285	      0.00000000	    -22.18316992	      0.36941928	      8.81606609
      6.04000000	      6.26781963	     -1.37010643	     -6.31053157	      1.70450556	      0.89040511	     -0.27151292	    -13.58778284	      1.89057620	      2.03372475	    -39.36069567	      1.71932883	     -1.59569553	      0.00000000	     14.60366094	      1.88189879	     -1.63720665	    -13.81822371	      0.50758911	     -5.49386278	      0.00000000	    -22.25733546	     -0.38666864	      8.08736142
      6.05000000	      6.50266886	     -0.58704059	     -6.00210557	      1.71720399	      0.89159143	     -0.27256285	    -11.96919525	      1.12764490	      1.45997324	    -43.26731168	     -0.68746435	     -2.36129963	      0.00000000	     14.14693318	      2.84096475	     -2.21842177	    -14.91649140	      2.43849443	     -4.07743616	      0.00000000	    -22.45964088	     -1.27339883	      7.42133085
      6.06000000	      6.61263411	      0.17326255	     -5.76290600	      1.72960450	      0.89269621	     -0.27355273	    -10.08725959	      0.38199396	      1.04759730	    -47.17908719	     -2.86851157	     -3.21951849	      0.00000000	     13.52024420	      3.78397212	     -2.51338224	    -15.43982383	      3.77066594	     -3.36735029	      0.00000000	    -22.57198439	     -2.11616606	      6.82401907
      6.07000000	      6.73520982	      0.92691791	     -5.63706642	      1.74174663	      0.89387383	     -0.27438261	     -8.12603820	     -0.39942469	      0.77414496	    -50.99481063	     -4.40967922	     -3.95450109	      0.00000000	     12.69164579	      4.67213512	     -3.07289913	    -15.60367930	      5.18098450	     -2.36917403	      0.00000000	    -22.73584445	     -2.98179300	      6.28803856
      6.08000000	      6.79086199	      1.64800326	     -5.63842350	      1.75365041	      0.89509020	     -0.27511055	     -6.03154364	     -1.14637013	      0.73661945	    -54.62561144	     -5.48827897	     -4.63684506	      0.00000000	     11.67007945	      5.54839767	     -3.39482376	    -15.24168495	      6.00946428	     -2.02879446	      0.00000000	    -22.85496128	     -3.81616207	      5.86789928
      6.09000000	      6.84973305	      2.28319544	     -5.69139727	      1.76539803	      0.89643629	     -0.27580516	     -3.95383459	     -1.77867832	      0.85368494	    -57.93265004	     -5.99225553	     -5.25773566	      0.00000000	     10.48849833	      6.34902401	     -3.64076711	    -14.57989702	      6.70351538	     -1.74918751	      0.00000000	    -22.98244197	     -4.53346001	      5.45036963
      6.10000000	      6.79943880	      2.76266350	     -5.75730379	      1.77692791	      0.89777421	     -0.27647859	     -1.78009005	     -2.19742387	      1.06134782	    -60.88626754	     -6.02415780	     -5.76304315	      0.00000000	      9.37819843	      6.97665284	     -3.85749915	    -13.83316975	      7.32655735	     -1.44905443	      0.00000000	    -23.00884750	     -5.05371532	      5.15732898
      6.11000000	      6.80285615	      3.09838397	     -5.73881599	      1.78831598	      0.89932831	     -0.27723283	      0.23959038	     -2.42035599	      1.24184675	    -63.37175170	     -5.65584066	     -6.26221064	      0.00000000	      8.16310685	      7.48326675	     -3.88240957	    -13.01099392	      7.82856865	     -1.24663577	      0.00000000	    -23.12165168	     -5.37673038	      4.75569883
      6.12000000	      6.65937059	      3.25623775	     -5.59200745	      1.79956965	      0.90082299	     -0.27814035	      2.32537966	     -2.41151465	      1.31055938	    -65.40635042	     -4.82619917	     -6.56501964	      0.00000000	      7.11766473	      7.80311235	     -3.70885625	    -12.23799767	      8.25472673	     -1.05818532	      0.00000000	    -23.06706391	     -5.42499347	      4.35946340
      6.13000000	      6.51717539	      3.25573853	     -5.25987960	      1.81069101	      0.90242136	     -0.27924970	      4.28229133	     -2.22498576	      1.18573079	    -66.94430785	     -3.76787824	     -6.83179395	      0.00000000	      6.10299785	      7.96725124	     -3.31616662	    -11.55519294	      8.68570567	     -0.90815763	      0.00000000	    -23.04379537	     -5.22985389	      3.84109612
      6.14000000	      6.35637144	      3.13444786	     -4.74326986	      1.82167021	      0.90404364	     -0.28055519	      6.14383848	     -1.92473367	      0.85456908	    -68.01193947	     -2.55849495	     -7.04208846	      0.00000000	      5.15395860	      8.00241036	     -2.72209180	    -10.97607378	      9.09792168	     -0.74862608	      0.00000000	    -23.02768752	     -4.83919396	      3.20447852
      6.15000000	      6.16982561	      2.94050435	     -4.06821821	      1.83256311	      0.90561128	     -0.28203888	      7.92831254	     -1.60180625	      0.30999814	    -68.63916875	     -1.20748672	     -7.16756051	      0.00000000	      4.25880510	      7.95407126	     -1.96308388	    -10.44791050	      9.46800265	     -0.65841654	      0.00000000	    -22.98659494	     -4.31817024	      2.51012982
      6.16000000	      5.99382886	      2.69968990	     -3.27156342	      1.84335097	      0.90711200	     -0.28365976	      9.60726308	     -1.29106837	     -0.39002933	    -68.85818393	      0.16479569	     -7.23182224	      0.00000000	      3.37157611	      7.84699571	     -1.04300407	     -9.94910458	      9.81588983	     -0.61822346	      0.00000000	    -22.97135332	     -3.70970644	      1.73630300
      6.17000000	      5.84705179	      2.45878876	     -2.40990619	      1.85406693	      0.90850362	     -0.28536406	     11.16832771	     -1.04596679	     -1.17583360	    -68.70114519	      1.47192055	     -7.32653177	      0.00000000	      2.39251459	      7.74922834	      0.28275638	     -9.32454106	      9.94674873	     -1.12366210	      0.00000000	    -22.99750132	     -3.08830599	      0.92081971
      6.18000000	      5.69556288	      2.20831899	     -1.54694739	      1.86471135	      0.90971678	     -0.28703193	     12.65934291	     -0.84357096	     -1.98785546	    -68.20183523	      2.78024265	     -7.30997006	      0.00000000	      1.45846776	      7.59659600	      1.41665226	     -8.74842861	     10.14022897	     -1.39065326	      0.00000000	    -23.02294492	     -2.46356467	      0.16100824
      6.19000000	      5.55314386	      1.99164284	     -0.72802908	      1.87530619	      0.91071880	     -0.28861179	     14.06955824	     -0.71372252	     -2.75776220	    -67.39060376	      4.03305966	     -7.24703816	      0.00000000	      0.50351600	      7.45485433	      2.56344921	     -8.12913545	     10.30037827	     -1.75599860	      0.00000000	    -23.06553565	     -1.90262203	     -0.52657755
      6.20000000	      5.41395951	      1.78705628	      0.04815634	      1.88584520	      0.91151822	     -0.29003858	     15.38736253	     -0.60930516	     -3.47200050	    -66.25039710	      5.10257771	     -7.30380086	      0.00000000	     -0.35675013	      7.27280525	      3.25445317	     -7.66390708	     10.74228694	     -1.53708900	      0.00000000	    -23.12679639	     -1.39174535	     -1.12958695
      6.21000000	      5.28147291	      1.67073427	      0.71698910	      1.89635979	      0.91202827	     -0.29135852	     16.63906754	     -0.60968431	     -4.05431677	    -64.86701994	      6.29542637	     -7.06162678	      0.00000000	     -1.40386158	      7.20834109	      4.75838435	     -6.86718689	     10.55316220	     -2.69780386	      0.00000000	    -23.21125063	     -1.00837686	     -1.64970916
